<svg xmlns="http://www.w3.org/2000/svg" width="2001.727" height="425.958" viewBox="0 0 2001.727 425.958">
  <!-- 寒色線(flow-line-cool.svg)と同じ「クリップ内に全面rectを塗る」方式で
       線端を欠けさせない。色だけ暖色（赤→橙→黄）に置き換えた版。
       グラデの向きはcoolと反対（右上→左下）にして、2本が絡んで見えるようにする -->
  <defs>
    <linearGradient id="grad-warm" x1="1.012" y1="1.04" x2="-0.012" y2="0.932" gradientUnits="objectBoundingBox">
      <stop offset="0" stop-color="#e83c4a"/>
      <stop offset="0.28" stop-color="#f04f32"/>
      <stop offset="0.56" stop-color="#f5803a"/>
      <stop offset="0.8" stop-color="#ecab2c"/>
      <stop offset="1" stop-color="#e7bb29"/>
    </linearGradient>
    <clipPath id="clip-warm">
      <path d="M409.532,42.024A228.677,228.677,0,0,1,419.6,68.485c12.312,39.186,14.99,81.641,17.594,122.948.569,9.055,1.153,18.421,1.842,27.562,7.655,102.532,34.189,143.019,56.446,166.839,12.9,13.8,26.62,5.829,49.075,15.47S571.15,424.4,585.3,424.4q1.947,0,3.895-.071c26.414-.91,49.093-11.405,63.857-29.564C671.745,371.769,676,341.1,680.13,311.451c1.217-8.755,2.475-17.813,4.091-26.5,7.45-40.228,32-81.231,70.054-82.148.46-.01.925-.015,1.385-.015,33.088,0,54.278,28.906,74.78,56.88,8.161,11.129,16.609,22.638,25.679,32.176,42.728,44.9,120.168,50.678,169.087,12.579,26.683-20.778,43.66-51.189,60.086-80.606,14.066-25.194,28.616-51.255,49.3-71.573,30.382-29.841,74.866-43.986,122.083-38.787s87.562,28.67,110.716,64.408c5.043,7.782,9.444,16.167,13.7,24.272,7.2,13.718,14.66,27.9,25.347,39.318,17.033,18.2,47.527,27.148,65.706,11.5,17.488-15.046,13.6-38.653,9.485-63.641-3.5-21.261-7.124-43.244,2.612-61.006,5.717-10.409,15.966-17.968,28.883-21.284,16.276-4.164,35.106-1.235,49.125,7.691,20.771,13.212,35.911,36.968,46.292,72.635,2.355,8.09,4.446,16.423,6.466,24.483,4.977,19.838,10.122,40.347,19.63,58.712,3.664,7.091,16.835,29.414,36.991,29.414.877,0,1.771-.041,2.675-.127,8.367-.816,15.364-5.358,20.24-13.148,7.922-12.648,9.363-32.539,3.5-48.381-3.247-8.755-7.8-17.287-12.208-25.542-7.762-14.548-15.8-29.6-16.794-46.252-.928-15.545,4.393-29.788,13.177-41.939,9.216-12.75,22.472-23.01,35.9-29.324,27.981-13.148,60.531-14.536,89.249-15.76,64.108-2.724,130.417-5.534,194.36,8.486l-.33,1.535c-43.731-9.6-88.611-11.288-133.29-10.522-20.253.347-40.571,1.211-60.676,2.066-28.568,1.22-60.945,2.6-88.647,15.618-15.721,7.389-27.285,17.551-35.3,28.79-9.568,13.407-13.625,28.343-12.874,40.954.976,16.317,8.921,31.213,16.617,45.612,4.423,8.306,9.01,16.878,12.292,25.743,6.017,16.258,12.92,38.813,4.752,51.842-5.145,8.217-20.947,10.92-29.8,11.776-.966.094-1.916.142-2.843.142-21.03,0-34.6-22.963-38.376-30.271-9.584-18.522-14.754-39.12-19.747-59.045-2.028-8.042-4.108-16.36-6.461-24.419-10.267-35.286-25.2-58.755-45.624-71.761a62.92,62.92,0,0,0-47.9-7.49c-12.49,3.206-22.4,10.5-27.895,20.527-9.474,17.28-5.9,38.99-2.447,59.992,4.2,25.441,8.156,49.466-10,65.084-18.888,16.24-50.345,7.106-67.869-11.614-10.836-11.581-18.342-25.86-25.593-39.666-4.243-8.075-8.628-16.423-13.631-24.142-22.9-35.342-62.833-58.559-109.575-63.7-27.382-3.03-33.251,15.831-63.455,25.419s-44.925.713-57.363,12.934c-20.516,20.153-35.012,46.115-49.029,71.215-16.5,29.549-33.556,60.1-60.483,81.073-29.416,22.907-69.019,30.15-105.54,22.7-24.724-5.046-48.083-16.973-65.654-35.433-9.134-9.6-17.6-21.159-25.8-32.326-20.273-27.659-41.234-56.242-73.537-56.242-.445,0-.887.008-1.336.015-37.174.894-61.214,41.264-68.552,80.867-1.6,8.659-2.856,17.691-4.075,26.439-4.147,29.856-8.446,60.742-27.412,84.071-15.054,18.517-38.152,29.224-65.018,30.151-1.316.048-2.627.064-3.943.064-33.714,0-68.257-14.747-90.967-39.046C471.9,362.894,445.161,322.13,437.464,219.1c-.681-9.149-1.273-18.512-1.844-27.567-3.181-50.49-6.466-102.685-27.514-148.863C397.15,18.619,374.781-4.116,351.462,2.835c-22.727,6.774-29.557,37.385-22.851,61.852,2.589,9.419,6.522,18.672,10.323,27.618,5.806,13.662,11.822,27.8,13.128,42.822,4.045,46.559-38.563,85.26-82.107,95.771-41.676,10.046-85.156,1.695-127.2-6.387l-8.168-1.568c-42.53-8.1-91.488-15.323-134,1.766L0,223.254c30.424-12.212,49.207-26.031,81.729-22.008,12.917,1.6,40.716,17.793,53.162,20.163l8.166,1.568c41.874,8.052,85.189,16.385,126.535,6.405,54.624-13.189,84.031-58.214,80.905-94.112-1.283-14.78-7.241-28.794-13.006-42.357-3.821-8.989-7.775-18.283-10.384-27.814-6.911-25.181.277-56.717,23.911-63.768A31.56,31.56,0,0,1,360.073,0c20.753,0,39.641,20.479,49.458,42.024" fill="none"/>
    </clipPath>
  </defs>
  <g clip-path="url(#clip-warm)">
    <rect x="-12" y="-12" width="2025.727" height="449.958" fill="url(#grad-warm)"/>
  </g>
</svg>
